<mxfile host="app.diagrams.net" modified="2024-04-02T10:08:26.635Z" agent="Mozilla/5.0 (X11; Ubuntu; Linux x86_64; rv:123.0) Gecko/20100101 Firefox/123.0" etag="Zkk8hLiI6Zo41MDP2m60" version="24.2.1" type="device">
  <diagram name="Page-1" id="Uuv9KMt26BGA5pnpHhme">
    <mxGraphModel dx="880" dy="478" grid="1" gridSize="10" guides="1" tooltips="1" connect="1" arrows="1" fold="1" page="1" pageScale="1" pageWidth="850" pageHeight="1100" math="0" shadow="0">
      <root>
        <mxCell id="0" />
        <mxCell id="1" parent="0" />
        <mxCell id="5soKEWr9r9gIT6t3-nbF-54" value="" style="group" vertex="1" connectable="0" parent="1">
          <mxGeometry x="50" y="80" width="730" height="400" as="geometry" />
        </mxCell>
        <mxCell id="5soKEWr9r9gIT6t3-nbF-40" style="edgeStyle=orthogonalEdgeStyle;rounded=0;orthogonalLoop=1;jettySize=auto;html=1;exitX=1;exitY=0.5;exitDx=0;exitDy=0;entryX=0;entryY=0.5;entryDx=0;entryDy=0;" edge="1" parent="5soKEWr9r9gIT6t3-nbF-54" source="5soKEWr9r9gIT6t3-nbF-7" target="5soKEWr9r9gIT6t3-nbF-15">
          <mxGeometry relative="1" as="geometry" />
        </mxCell>
        <mxCell id="5soKEWr9r9gIT6t3-nbF-47" style="edgeStyle=orthogonalEdgeStyle;rounded=0;orthogonalLoop=1;jettySize=auto;html=1;exitX=0.5;exitY=1;exitDx=0;exitDy=0;entryX=1;entryY=0.5;entryDx=0;entryDy=0;" edge="1" parent="5soKEWr9r9gIT6t3-nbF-54" source="5soKEWr9r9gIT6t3-nbF-7" target="5soKEWr9r9gIT6t3-nbF-46">
          <mxGeometry relative="1" as="geometry">
            <mxPoint x="230" y="170" as="targetPoint" />
            <Array as="points">
              <mxPoint x="290" y="160" />
            </Array>
          </mxGeometry>
        </mxCell>
        <mxCell id="5soKEWr9r9gIT6t3-nbF-7" value="product needed is searched for" style="rounded=1;whiteSpace=wrap;html=1;absoluteArcSize=1;arcSize=14;strokeWidth=2;" vertex="1" parent="5soKEWr9r9gIT6t3-nbF-54">
          <mxGeometry x="230" width="120" height="80" as="geometry" />
        </mxCell>
        <mxCell id="5soKEWr9r9gIT6t3-nbF-9" value="" style="strokeWidth=2;html=1;shape=mxgraph.flowchart.start_2;whiteSpace=wrap;" vertex="1" parent="5soKEWr9r9gIT6t3-nbF-54">
          <mxGeometry y="10" width="60" height="60" as="geometry" />
        </mxCell>
        <mxCell id="5soKEWr9r9gIT6t3-nbF-51" style="edgeStyle=orthogonalEdgeStyle;rounded=0;orthogonalLoop=1;jettySize=auto;html=1;exitX=0.25;exitY=1;exitDx=0;exitDy=0;entryX=1;entryY=0.5;entryDx=0;entryDy=0;" edge="1" parent="5soKEWr9r9gIT6t3-nbF-54" source="5soKEWr9r9gIT6t3-nbF-15" target="5soKEWr9r9gIT6t3-nbF-50">
          <mxGeometry relative="1" as="geometry">
            <mxPoint x="490" y="160" as="targetPoint" />
            <Array as="points">
              <mxPoint x="550" y="200" />
            </Array>
          </mxGeometry>
        </mxCell>
        <mxCell id="5soKEWr9r9gIT6t3-nbF-15" value="client fits in the clothe, shoe or tries out the perfume" style="rounded=1;whiteSpace=wrap;html=1;absoluteArcSize=1;arcSize=14;strokeWidth=2;" vertex="1" parent="5soKEWr9r9gIT6t3-nbF-54">
          <mxGeometry x="520" width="120" height="80" as="geometry" />
        </mxCell>
        <mxCell id="5soKEWr9r9gIT6t3-nbF-41" style="edgeStyle=orthogonalEdgeStyle;rounded=0;orthogonalLoop=1;jettySize=auto;html=1;exitX=1;exitY=0.5;exitDx=0;exitDy=0;entryX=0;entryY=0.5;entryDx=0;entryDy=0;" edge="1" parent="5soKEWr9r9gIT6t3-nbF-54" source="5soKEWr9r9gIT6t3-nbF-16" target="5soKEWr9r9gIT6t3-nbF-7">
          <mxGeometry relative="1" as="geometry">
            <mxPoint x="130" y="40" as="targetPoint" />
          </mxGeometry>
        </mxCell>
        <mxCell id="5soKEWr9r9gIT6t3-nbF-16" value="Start" style="text;strokeColor=none;align=center;fillColor=none;html=1;verticalAlign=middle;whiteSpace=wrap;rounded=0;" vertex="1" parent="5soKEWr9r9gIT6t3-nbF-54">
          <mxGeometry y="25" width="60" height="30" as="geometry" />
        </mxCell>
        <mxCell id="5soKEWr9r9gIT6t3-nbF-17" value="client needs a clothe, perfume or shoe" style="text;strokeColor=none;align=center;fillColor=none;html=1;verticalAlign=middle;whiteSpace=wrap;rounded=0;" vertex="1" parent="5soKEWr9r9gIT6t3-nbF-54">
          <mxGeometry x="70" y="10" width="120" height="30" as="geometry" />
        </mxCell>
        <mxCell id="5soKEWr9r9gIT6t3-nbF-19" value="product found" style="text;strokeColor=none;align=center;fillColor=none;html=1;verticalAlign=middle;whiteSpace=wrap;rounded=0;" vertex="1" parent="5soKEWr9r9gIT6t3-nbF-54">
          <mxGeometry x="390" y="10" width="60" height="30" as="geometry" />
        </mxCell>
        <mxCell id="5soKEWr9r9gIT6t3-nbF-42" style="edgeStyle=orthogonalEdgeStyle;rounded=0;orthogonalLoop=1;jettySize=auto;html=1;exitX=1;exitY=0.5;exitDx=0;exitDy=0;entryX=0;entryY=0.5;entryDx=0;entryDy=0;" edge="1" parent="5soKEWr9r9gIT6t3-nbF-54" source="5soKEWr9r9gIT6t3-nbF-20" target="5soKEWr9r9gIT6t3-nbF-27">
          <mxGeometry relative="1" as="geometry">
            <mxPoint x="300" y="370" as="targetPoint" />
          </mxGeometry>
        </mxCell>
        <mxCell id="5soKEWr9r9gIT6t3-nbF-20" value="product is packed " style="rounded=1;whiteSpace=wrap;html=1;absoluteArcSize=1;arcSize=14;strokeWidth=2;" vertex="1" parent="5soKEWr9r9gIT6t3-nbF-54">
          <mxGeometry x="70" y="320" width="120" height="80" as="geometry" />
        </mxCell>
        <mxCell id="5soKEWr9r9gIT6t3-nbF-27" value="product given to the client and the inventory is updated" style="rounded=1;whiteSpace=wrap;html=1;absoluteArcSize=1;arcSize=14;strokeWidth=2;" vertex="1" parent="5soKEWr9r9gIT6t3-nbF-54">
          <mxGeometry x="310" y="320" width="120" height="80" as="geometry" />
        </mxCell>
        <mxCell id="5soKEWr9r9gIT6t3-nbF-28" value="" style="edgeStyle=elbowEdgeStyle;endArrow=classic;html=1;rounded=0;endSize=8;startSize=8;elbow=vertical;entryX=0.325;entryY=0.013;entryDx=0;entryDy=0;entryPerimeter=0;" edge="1" parent="5soKEWr9r9gIT6t3-nbF-54" target="5soKEWr9r9gIT6t3-nbF-20">
          <mxGeometry width="50" height="50" relative="1" as="geometry">
            <mxPoint x="590" y="80" as="sourcePoint" />
            <mxPoint x="110" y="230" as="targetPoint" />
            <Array as="points">
              <mxPoint x="350" y="280" />
            </Array>
          </mxGeometry>
        </mxCell>
        <mxCell id="5soKEWr9r9gIT6t3-nbF-45" value="&lt;div&gt;client pays for the&amp;nbsp;&lt;/div&gt;&lt;div&gt;product&lt;/div&gt;" style="text;html=1;align=center;verticalAlign=middle;resizable=0;points=[];autosize=1;strokeColor=none;fillColor=none;" vertex="1" parent="5soKEWr9r9gIT6t3-nbF-54">
          <mxGeometry x="190" y="323" width="120" height="40" as="geometry" />
        </mxCell>
        <mxCell id="5soKEWr9r9gIT6t3-nbF-46" value="client is notified" style="rounded=1;whiteSpace=wrap;html=1;absoluteArcSize=1;arcSize=14;strokeWidth=2;" vertex="1" parent="5soKEWr9r9gIT6t3-nbF-54">
          <mxGeometry x="30" y="120" width="120" height="80" as="geometry" />
        </mxCell>
        <mxCell id="5soKEWr9r9gIT6t3-nbF-48" value="product not found" style="text;html=1;align=center;verticalAlign=middle;resizable=0;points=[];autosize=1;strokeColor=none;fillColor=none;" vertex="1" parent="5soKEWr9r9gIT6t3-nbF-54">
          <mxGeometry x="170" y="130" width="120" height="30" as="geometry" />
        </mxCell>
        <mxCell id="5soKEWr9r9gIT6t3-nbF-50" value="client notified" style="rounded=1;whiteSpace=wrap;html=1;absoluteArcSize=1;arcSize=14;strokeWidth=2;" vertex="1" parent="5soKEWr9r9gIT6t3-nbF-54">
          <mxGeometry x="310" y="160" width="120" height="80" as="geometry" />
        </mxCell>
        <mxCell id="5soKEWr9r9gIT6t3-nbF-52" value="&lt;div&gt;good fit and accepted&lt;/div&gt;&lt;div&gt;by the client &lt;br&gt;&lt;/div&gt;" style="text;html=1;align=center;verticalAlign=middle;resizable=0;points=[];autosize=1;strokeColor=none;fillColor=none;" vertex="1" parent="5soKEWr9r9gIT6t3-nbF-54">
          <mxGeometry x="590" y="200" width="140" height="40" as="geometry" />
        </mxCell>
        <mxCell id="5soKEWr9r9gIT6t3-nbF-53" value="bad fit for client" style="text;html=1;align=center;verticalAlign=middle;resizable=0;points=[];autosize=1;strokeColor=none;fillColor=none;" vertex="1" parent="5soKEWr9r9gIT6t3-nbF-54">
          <mxGeometry x="455" y="130" width="100" height="30" as="geometry" />
        </mxCell>
      </root>
    </mxGraphModel>
  </diagram>
</mxfile>
